<?xml version="1.0" encoding="UTF-8"?>
<svg id="Layer_2" data-name="Layer 2" xmlns="http://www.w3.org/2000/svg" viewBox="0 0 113.36 113.36">
  <defs>
    <style>
      .cls-1 {
        fill: #231f20;
        stroke-width: 0px;
      }
    </style>
  </defs>
  <g id="Icons">
    <path class="cls-1" d="m0,0v113.36h113.36V0H0Zm30.73,69.91c1.41,1.55,3.39,2.33,5.94,2.33,2,0,3.68-.66,5.06-1.98,1.37-1.32,2.32-3.19,2.83-5.6h9.45c-.62,3.53-1.71,6.54-3.28,9.03-1.56,2.49-3.53,4.4-5.9,5.7-2.37,1.31-5.09,1.96-8.15,1.96-3.7,0-6.86-.7-9.46-2.11-2.61-1.41-4.6-3.46-5.97-6.15-1.38-2.69-2.06-5.95-2.06-9.76v-13.27c0-3.84.69-7.09,2.06-9.78,1.37-2.68,3.36-4.73,5.97-6.15,2.6-1.42,5.76-2.13,9.46-2.13,3.06,0,5.78.65,8.17,1.96,2.38,1.31,4.36,3.2,5.92,5.69,1.56,2.48,2.64,5.5,3.24,9.05h-9.45c-.35-1.62-.9-2.99-1.65-4.11s-1.64-1.98-2.69-2.58-2.23-.9-3.54-.9c-2.55,0-4.53.78-5.94,2.34-1.41,1.56-2.11,3.76-2.11,6.6v13.27c0,2.84.7,5.03,2.11,6.59Zm49.8,10.94h-7.12l-16.1-48.36h9.38l10.28,32.26,10.28-32.26h9.38l-16.1,48.36Z"/>
  </g>
</svg>