<?xml version="1.0" encoding="UTF-8"?>
<svg id="Layer_2" data-name="Layer 2" xmlns="http://www.w3.org/2000/svg" viewBox="0 0 113.36 113.36">
  <defs>
    <style>
      .cls-1 {
        fill: #231f20;
        stroke-width: 0px;
      }
    </style>
  </defs>
  <g id="Icons">
    <path class="cls-1" d="m0,0v113.36h113.36V0H0Zm41.26,76.88c0,3.13,0,6.26,0,9.39h0c-.18.01-.36,0-.53,0-4.09,0-8.18,0-12.27,0,.04-.09.08-.19.12-.28,0-.13.01-.26.01-.39,0-13.24,0-26.48,0-39.72,0-.13,0-.26-.01-.39l-.05-.28c.55,0,1.09,0,1.64,0,3.7,0,7.4,0,11.1,0h0c0,10.57,0,21.12,0,31.68Zm1.04-43.41s-.03.09-.05.13c-.05.26-.11.53-.16.79-.02.04-.03.08-.05.12-.65,2.01-1.88,3.51-3.79,4.45-.35.17-.67.36-1.08.36-.2,0-.41.17-.61.26l-.2.06c-.05,0-.1,0-.15.01-.09.02-.18.04-.27.06-.69,0-1.38,0-2.07,0-.09-.02-.18-.04-.27-.06h-.16c-.07-.03-.13-.05-.2-.07-.41-.09-.85-.1-1.17-.45-.08-.09-.31-.03-.44-.1-1.98-1.02-3.34-2.56-3.94-4.73-.01-.04-.03-.08-.04-.12-.11-.7-.33-1.4-.3-2.09.17-3.72,2.55-6.58,5.98-7.3,2.71-.57,5.08.19,7.01,2.17,1.15,1.18,1.86,2.62,2,4.29.06.73,0,1.48-.01,2.22Zm46.72,52.81h0s0,0,0,0c-2.37,0-4.74,0-7.11,0-1.83,0-3.65,0-5.48,0,0-.19,0-.38,0-.57,0-6.75,0-13.5,0-20.25,0-.17-.04-.35-.06-.52,0-.4-.02-.81-.03-1.21-.02-.07-.04-.14-.05-.22,0-.14.01-.28.02-.43,0-.07,0-.14,0-.21-.01-.05-.02-.1-.03-.15,0-.08,0-.17,0-.25-.01-.06-.03-.11-.04-.17-.22-.9-.36-1.82-.68-2.69-.26-.71-.71-1.34-1.11-1.99-.12-.2-.34-.35-.51-.52-.02-.02-.04-.05-.06-.07-.17-.15-.34-.3-.52-.45-.04-.02-.08-.04-.13-.05-.63-.44-1.33-.73-2.09-.85-.09-.07-.18-.14-.27-.2-.1.03-.19.05-.29.08-.07,0-.14,0-.21,0-.41,0-.83,0-1.24-.02-.23,0-.46-.04-.69-.06-.02.02-.05.04-.07.06,0,0,0,0,0,0-.09.02-.19.05-.28.07-.07-.02-.14-.04-.21-.06-.09.04-.18.09-.28.13-2.05.36-3.59,1.44-4.62,3.23-.19.34-.34.7-.51,1.05-.02.07-.04.13-.06.2-.12.41-.24.82-.36,1.23-.02.06-.04.13-.06.19-.06.31-.12.62-.18.93-.02.08-.03.15-.05.23,0,.09,0,.18,0,.27-.01.05-.02.1-.03.15-.01.1-.03.2-.04.3,0,.18,0,.36,0,.55,0,.1-.02.19-.03.29-.02.03-.04.05-.05.08.02.19.04.38.06.56-.02.17-.06.35-.06.52,0,6.94,0,13.88,0,20.82h0c-2.92.01-5.84,0-8.76,0-1.11,0-2.22,0-3.34-.01,0-.12,0-.24,0-.36,0-13.43,0-26.87,0-40.3,0-.13,0-.26,0-.39.18,0,.36-.01.53-.01,3.85,0,7.71,0,11.56,0h0c0,1.64,0,3.27,0,4.9,0,.15.04.3.05.45.08-.08.18-.15.25-.24.12-.15.24-.32.35-.48.02-.04.04-.08.05-.11,1.19-1.57,2.63-2.85,4.33-3.85.08-.05.15-.11.23-.16.02-.05.05-.1.07-.15.1-.01.2-.02.29-.03.02,0,.04,0,.06-.01.05-.03.11-.06.16-.09.04-.01.08-.03.12-.04.95-.35,1.9-.7,2.86-1.04.05-.02.1-.03.15-.05l2.55-.29s.1-.03.14-.05c.05,0,.1,0,.15,0,.02,0,.05,0,.07,0,.12,0,.24-.02.36-.03h.03s.03,0,.03,0c.05,0,.1,0,.15,0,.07,0,.14,0,.21,0,.44.23.9.05,1.35.05.07,0,.15-.04.19-.01.25.15.49.1.74-.01.07.07.14.13.21.2.1,0,.19,0,.29.01.07.02.15.03.22.05.42.07.85.15,1.27.22.05.02.1.03.14.05.6.2,1.19.41,1.79.61.07.02.13.04.2.05.02.01.03.03.03.04.01.01.03.02.05.03.72.39,1.44.78,2.15,1.17.04.01.08.03.12.04,1.14.84,2.13,1.83,3,2.95.02.04.03.07.05.11.41.68.83,1.36,1.21,2.05.19.34.3.73.45,1.09.01.02.03.04.04.06.01,0,.02,0,.03.01.02.07.03.13.05.2.1.31.2.63.3.94.02.04.03.08.05.12.05.13.09.25.14.38,0,.07.01.13.02.2.1.5.25,1,.27,1.5.02.41.34.81.06,1.23-.02.03.05.12.08.18.04.07.11.14.11.21,0,.46-.01.92-.02,1.38,0,.04-.03.1,0,.12.27.4.12.85.17,1.27,0,.17-.01.33-.01.5,0,8.45,0,16.89,0,25.34h0Z"/>
  </g>
</svg>