<?xml version="1.0" encoding="UTF-8"?>
<svg id="Layer_2" data-name="Layer 2" xmlns="http://www.w3.org/2000/svg" viewBox="0 0 113.36 113.36">
  <defs>
    <style>
      .cls-1 {
        fill: #231f20;
        stroke-width: 0px;
      }
    </style>
  </defs>
  <g id="Icons">
    <path class="cls-1" d="m0,0v113.36h113.36V0H0Zm95.95,61.43c-.16,1.34-.49,2.66-.76,3.98-1.24,6.13-3.78,11.68-7.61,16.61-1.36,1.75-3.01,3.27-4.53,4.89l-.15.14c-2.79,2.57-5.94,4.63-9.33,6.31-1.42.71-2.9,1.34-4.41,1.84-1.29.42-2.81-.06-2.78-1.89.04-2.14.02-4.29.03-6.43,0-.07.02-.14.02-.21,0-1.42.01-2.85.02-4.27-.01-.07-.02-.14-.04-.21-.08-2-.35-3.95-1.5-5.67-.32-.48-.71-.91-1.11-1.4,1.23-.2,2.46-.33,3.65-.62,3.17-.75,6.19-1.83,8.72-4.04,3.21-2.82,4.66-6.43,5.2-10.54.14-1.07.37-2.11-.07-2.95.17-.58.44-1.03.41-1.46-.18-2.74-.5-5.46-2.04-7.85-.61-.94-1.26-1.86-1.91-2.82.87-3.22.95-6.5-.28-9.78-.21-.57-.48-.58-.93-.61-2.84-.15-5.24,1.1-7.6,2.43-.73.41-1.4.95-2.15,1.34-.31.16-.76.15-1.13.09-1.83-.26-3.64-.65-5.48-.83-1.75-.17-3.53-.29-5.28-.17-2.02.13-4.03.58-6.05.83-1.2.15-2.36.55-3.51-.54-.84-.8-2.1-1.14-3.18-1.69-.02-.06-.03-.11-.05-.17l-.06.17c-.07-.04-.15-.08-.22-.12-.13-.06-.26-.13-.39-.19-1.73-.89-3.59-1.18-5.66-1.12-.17,1.02-.32,2.03-.51,3.04-.16.86-.56,1.72-.51,2.55.09,1.47.44,2.93.66,4.4.04.24.03.57-.11.73-3.26,3.7-4.04,8.11-3.79,12.84.03.5-.12,1.02-.06,1.52.06.48.3.93.44,1.4.26.92.46,1.87.76,2.78.87,2.66,2.26,5.02,4.39,6.84,2.24,1.92,4.88,3.13,7.76,3.77,1.45.32,2.91.58,4.42.87-1.2,1.37-1.98,3-2.19,4.89-.02.17-.29.37-.49.46-3.03,1.35-6.02,1.41-8.72-.67-1.04-.8-1.77-2.02-2.54-3.12-1.34-1.9-3.01-3.29-5.37-3.57-.75-.09-1.54.15-2.31.23-.05.14-.1.27-.15.41.46.47.84,1.07,1.38,1.4,1.49.88,2.51,2.18,3.44,3.58-.04.05-.09.09-.13.14.05,0,.09.02.14.02.74,1.31,1.4,2.67,2.24,3.91,1.37,2.03,3.45,2.98,5.79,3.43,1.81.35,3.59.22,5.38-.18.29-.06.61,0,1.01,0,0,1.12-.02,2.2,0,3.28.03,1.11.15,2.21.17,3.32.04,2.16-1.36,3.04-3.39,2.29-3.09-1.14-6.03-2.56-8.73-4.44-1.65-1.15-3.16-2.49-4.73-3.74-.07-.05-.13-.1-.2-.15,0,0,0,0,0,0h0s0,0,0,0c-.19-.19-.38-.38-.58-.57-1.55-1.83-3.1-3.65-4.66-5.48-.09-.1-.24-.14-.37-.21-.03-.06-.07-.1-.13-.12-.02-.06-.03-.13-.05-.19-.13-.12-.26-.25-.39-.37-.04-.06-.09-.13-.13-.19.09-.06.18-.13.27-.19-.09-.06-.18-.13-.27-.19-1.65-2.82-3.24-5.68-4.15-8.83-.66-2.29-1.15-4.63-1.69-6.96-.11-.47-.12-.96-.17-1.44-.06-.12-.12-.24-.17-.37-.01-.39-.03-.79-.03-1.18,0-1.22.02-2.43,0-3.65-.06-3.61.63-7.1,1.6-10.55,1.34-4.72,3.58-8.99,6.55-12.86,3.07-4,6.82-7.29,11.12-9.94.05-.03.12-.01.18-.02l.39-.52c1.21-.51,2.43-1,3.62-1.54,3.03-1.39,6.18-2.32,9.47-2.81.33-.05.63-.32.75-.38,1.26,0,2.35.01,3.44,0,.48,0,.96-.08,1.44-.13.08.1.16.21.24.31l.32-.32h.37c.08.11.16.21.24.32.11-.1.22-.21.32-.31,2.15.24,4.3.41,6.44.73,5.88.88,11.8,3.68,15.75,6.77,2,1.56,3.83,3.34,5.74,5.02.05.05.1.1.15.15,4.14,4.5,7.12,9.68,8.79,15.56.62,2.18.98,4.44,1.29,6.69.26,1.82.29,3.68.39,5.52.05,1,.11,2.01-.01,2.99Z" fill=""/>
  </g>
</svg>