<?xml version="1.0" encoding="UTF-8"?>
<svg id="Layer_2" data-name="Layer 2" xmlns="http://www.w3.org/2000/svg" viewBox="0 0 113.36 113.36">
  <defs>
    <style>
      .cls-1 {
        fill: #231f20;
        stroke-width: 0px;
      }
    </style>
  </defs>
  <g id="Icons">
    <path class="cls-1" d="m0,0v113.36h113.36V0H0Zm98.07,79.7c-.55,2.5-1.01,5.05-1.84,7.46-.77,2.24-2.8,3.58-4.75,4.69-2.53,1.43-5.21,2.61-7.88,3.75-.93.4-2.04.45-3.07.51-2.8.15-5.58-.02-8.28-.86-1.28-.4-2.57-.79-3.86-1.18-.14-.05-.27-.1-.41-.15,0,0,0-.06,0-.06-.03-.04-.07-.08-.1-.12.03.04.06.08.09.12l-3.38-1.2c-.14-.05-.27-.1-.41-.15,0,0,.01-.06.01-.06-.04-.04-.08-.07-.11-.11.04.04.07.08.11.12l-1.2-.39c-.14-.05-.27-.1-.41-.15-1-.42-2-.83-3-1.25-.14-.05-.27-.1-.41-.15,0,0,0,0,0,0h0s0,0,0,0c-.02-.09-.04-.18-.07-.27-.04.07-.09.15-.13.22-.16-.09-.31-.18-.47-.27.03-.05.06-.11.08-.16-.04.04-.08.09-.12.13-1.64-.9-3.28-1.8-4.92-2.71-.12-.06-.24-.11-.36-.17-3.29-2.55-6.58-5.1-9.88-7.65-.07-.06-.15-.11-.22-.17-2.14-2.07-4.27-4.14-6.41-6.21-.2-.21-.41-.41-.61-.62-1.8-2.05-3.66-4.05-5.37-6.18-1.41-1.75-2.74-3.58-3.91-5.49-1.36-2.2-2.51-4.52-3.75-6.79-.11-.21-.23-.41-.34-.62-.02-.13-.04-.26-.06-.39-.05-.07-.11-.14-.16-.21-.08-.26-.16-.53-.24-.79-.05-.07-.11-.14-.16-.21-.89-2.34-1.78-4.68-2.66-7.02-.13-.27-.25-.54-.38-.81-.34-1.34-.73-2.66-.99-4.01-.28-1.39-.44-2.81-.65-4.22-.05-.2-.1-.41-.15-.61,0-.4,0-.79,0-1.19.05-.14.1-.27.14-.41.12-4.27,1.82-7.98,4.04-11.52,1.07-1.7,2.14-3.47,3.92-4.47,1.26-.71,2.78-.95,4.14-1.5,1.55-.62,3.15-.74,4.8-.81,1.28-.05,2.05.53,2.63,1.55,1.62,2.89,3.21,5.81,4.87,8.68,1.3,2.25,2.7,4.44,4.03,6.67.3.5.48,1.06.72,1.59.19.14.37.28.56.42-.66,2.34-2.41,3.86-4.13,5.39-1.81,1.61-3.75,3.1-5.47,4.79-1.85,1.82-1.46,2.29-.28,4.6,1.46,2.85,3.28,5.54,5.09,8.2,1.31,1.91,2.81,3.7,4.31,5.47,1.09,1.28,2.32,2.45,3.48,3.67.08.06.16.11.23.17,4.37,4.05,9.4,7.14,14.62,9.94,1.72.93,2.76.78,4.09-.64,1.48-1.58,2.8-3.32,4.25-4.93,1.09-1.21,2.21-2.42,3.46-3.47,1.24-1.04,2.79-.91,4.32.08,1.12.72,2.23,1.48,3.38,2.15,2.52,1.47,5.06,2.9,7.6,4.33,1.47.83,2.94,1.65,4.42,2.47,1.26.7,1.94,1.74,1.62,3.19Z"/>
  </g>
</svg>